<?xml version="1.0" encoding="iso-8859-1"?>
<!-- Generator: Adobe Illustrator 19.0.0, SVG Export Plug-In . SVG Version: 6.00 Build 0)  -->
<svg version="1.1" id="Layer_1" xmlns="http://www.w3.org/2000/svg" xmlns:xlink="http://www.w3.org/1999/xlink" x="0px" y="0px"
	 viewBox="0 0 512 512" style="enable-background:new 0 0 512 512;" xml:space="preserve">
<polygon style="fill:#D5F6F5;" points="449.362,117.106 394.893,66.673 416.681,405.788 449.362,405.788 "/>
<polygon style="fill:#FFFFFF;" points="8.17,117.106 8.17,405.788 416.681,405.788 416.681,84.425 "/>
<polygon style="fill:#FE5F1A;" points="416.681,51.744 394.893,84.425 416.681,117.106 449.362,117.106 449.362,51.744 "/>
<rect x="302.299" y="51.744" style="fill:#FE834D;" width="114.383" height="65.362"/>
<polygon style="fill:#02ACAB;" points="269.617,51.744 247.829,84.425 269.617,117.106 302.297,117.106 302.297,51.744 "/>
<rect x="8.169" y="51.744" style="fill:#42C8C6;" width="261.447" height="65.362"/>
<path style="fill:#B9B9B9;" d="M394.893,242.383v217.873c60.166,0,108.936-48.771,108.936-108.936
	C503.83,291.153,455.059,242.383,394.893,242.383z"/>
<path style="fill:#DCDCDC;" d="M394.893,242.383c42.115,0,76.255,48.771,76.255,108.936s-34.141,108.936-76.255,108.936
	c-60.166,0-108.936-48.771-108.936-108.936S334.728,242.383,394.893,242.383z"/>
<path style="fill:#737373;" d="M428.119,327.353h-24.783v82.792h24.783c8.987,0,16.34-7.353,16.34-16.34v-50.111
	C444.459,334.707,437.106,327.353,428.119,327.353z"/>
<path style="fill:#969696;" d="M419.676,343.694v50.111c0,8.987-7.353,16.34-16.34,16.34h-41.668c-8.987,0-16.34-7.353-16.34-16.34
	v-50.111c0-8.987,7.353-16.34,16.34-16.34h41.668C412.323,327.353,419.676,334.707,419.676,343.694z"/>
<path d="M310.468,217.872c0-4.512-3.657-8.17-8.17-8.17H155.233c-4.513,0-8.17,3.658-8.17,8.17c0,4.512,3.657,8.17,8.17,8.17
	h147.064C306.811,226.042,310.468,222.384,310.468,217.872z"/>
<path d="M285.528,269.617c4.513,0,8.17-3.658,8.17-8.17c0-4.512-3.657-8.17-8.17-8.17H89.873c-4.513,0-8.17,3.658-8.17,8.17v43.575
	c0,4.512,3.657,8.17,8.17,8.17h171.184c4.513,0,8.17-3.658,8.17-8.17s-3.657-8.17-8.17-8.17H98.043v-27.234H285.528z"/>
<circle cx="375.831" cy="84.425" r="8.17"/>
<circle cx="343.15" cy="84.425" r="8.17"/>
<circle cx="408.512" cy="84.425" r="8.17"/>
<path d="M264.176,397.617H16.34c0-35.953,0-181.914,0-272.341h424.852v95.326c0,4.512,3.657,8.17,8.17,8.17s8.17-3.658,8.17-8.17
	V51.744c0-4.512-3.657-8.17-8.17-8.17H8.17c-2.167,0-4.244,0.861-5.778,2.393C0,48.36,0,49.918,0,55.719v350.068
	c0,4.512,3.657,8.17,8.17,8.17h256.006c4.513,0,8.17-3.658,8.17-8.17S268.688,397.617,264.176,397.617z M441.191,108.936H310.468
	V59.914h130.724V108.936z M294.127,59.914v49.021H16.34c0-22.067,0-39.456,0-49.021H294.127z"/>
<path d="M430.298,319.284v-14.263c0-19.252-15.221-33.77-35.404-33.77c-19.522,0-35.404,15.883-35.404,35.404v12.63
	c-12.497,1.107-22.332,11.628-22.332,24.408v50.111c0,13.516,10.996,24.511,24.511,24.511h66.451
	c13.515,0,24.511-10.995,24.511-24.511v-50.111C452.63,330.912,442.795,320.391,430.298,319.284z M394.893,287.592
	c11.047,0,19.064,7.33,19.064,17.43v14.162h-38.128v-12.528C375.829,296.143,384.382,287.592,394.893,287.592z M436.289,393.805
	c0,4.506-3.665,8.17-8.17,8.17h-66.451c-4.506,0-8.17-3.665-8.17-8.17v-50.111c0-4.506,3.665-8.17,8.17-8.17h66.451
	c4.506,0,8.17,3.665,8.17,8.17V393.805z"/>
<path d="M394.893,352.409c-4.513,0-8.17,3.658-8.17,8.17v16.34c0,4.512,3.657,8.17,8.17,8.17s8.17-3.658,8.17-8.17v-16.34
	C403.064,356.066,399.407,352.409,394.893,352.409z"/>
<path d="M394.893,234.213c-64.572,0-117.107,52.533-117.107,117.107s52.535,117.107,117.107,117.107S512,415.893,512,351.319
	S459.465,234.213,394.893,234.213z M394.893,452.086c-55.563,0-100.766-45.203-100.766-100.766s45.203-100.766,100.766-100.766
	S495.66,295.756,495.66,351.319S450.456,452.086,394.893,452.086z"/>
<g>
</g>
<g>
</g>
<g>
</g>
<g>
</g>
<g>
</g>
<g>
</g>
<g>
</g>
<g>
</g>
<g>
</g>
<g>
</g>
<g>
</g>
<g>
</g>
<g>
</g>
<g>
</g>
<g>
</g>
</svg>
