<?xml version="1.0" encoding="iso-8859-1"?>
<!-- Generator: Adobe Illustrator 19.0.0, SVG Export Plug-In . SVG Version: 6.00 Build 0)  -->
<svg version="1.1" id="Layer_1" xmlns="http://www.w3.org/2000/svg" xmlns:xlink="http://www.w3.org/1999/xlink" x="0px" y="0px"
	 viewBox="0 0 490.667 490.667" style="enable-background:new 0 0 490.667 490.667;" xml:space="preserve">
<g>
	<g>
		<g>
			<path d="M231.531,344.469c-4.16-4.16-10.923-4.16-15.083,0l-13.781,13.781l-13.781-13.781c-4.16-4.16-10.923-4.16-15.083,0
				c-4.16,4.16-4.16,10.923,0,15.083l13.76,13.781l-13.781,13.781c-4.16,4.16-4.16,10.923,0,15.083
				c2.091,2.091,4.821,3.136,7.552,3.136s5.461-1.045,7.531-3.115l13.803-13.781l13.781,13.781c2.091,2.069,4.821,3.115,7.552,3.115
				c2.731,0,5.461-1.045,7.531-3.115c4.16-4.16,4.16-10.923,0-15.083l-13.781-13.803l13.781-13.781
				C235.691,355.392,235.691,348.629,231.531,344.469z"/>
			<path d="M138.667,277.333L352,277.312c5.888,0,10.667-4.779,10.667-10.667c0-26.731-18.112-49.941-44.032-56.448l-32.021-7.979
				l-1.344-5.376c8.32-9.173,14.208-20.885,16.661-33.045c5.675-2.944,9.813-8.555,10.667-15.253l2.325-18.539
				c0.704-5.611-1.045-11.285-4.757-15.552c-1.152-1.323-2.475-2.475-3.904-3.435l0.555-11.307l1.963-1.984
				c5.483-5.824,12.928-18.325,1.152-36.309c-5.611-8.555-17.109-18.752-40.192-18.752c-6.784,0-22.123,0-37.056,9.365
				c-43.904,1.536-49.067,25.195-49.067,43.051c0,3.52,0.64,10.112,1.237,15.616c-1.6,1.003-3.029,2.24-4.288,3.648
				c-3.776,4.288-5.547,9.984-4.843,15.68l2.325,18.539c0.875,6.976,5.291,12.715,11.797,15.552
				c2.411,11.648,7.979,22.912,15.765,31.851l-1.557,6.272l-32.021,7.979C146.112,216.704,128,239.915,128,266.667
				c0,2.837,1.109,5.568,3.115,7.552C133.12,276.203,135.829,277.333,138.667,277.333z M177.195,230.912l38.229-9.536
				c3.819-0.96,6.827-3.925,7.765-7.765l4.544-18.197c0.96-3.733-0.235-7.701-3.051-10.368c-8.299-7.787-13.803-19.2-14.699-30.549
				c-0.448-5.525-5.184-8.597-10.752-8.597l-2.731-16.96c3.072,0,5.973-1.323,8-3.605c2.027-2.325,2.965-5.355,2.581-8.405
				c-0.811-6.443-2.112-18.112-2.112-21.867c0-11.029,0-21.461,31.168-21.781c2.176-0.021,4.331-0.704,6.101-1.984
				C252.416,64,264.085,64,269.696,64c16.384,0,20.864,6.848,22.336,9.088c4.352,6.656,2.581,8.533,1.408,9.792l-4.651,4.629
				c-1.877,1.877-3.008,4.395-3.136,7.04l-1.131,23.232c-0.128,2.901,0.235,4.928,2.219,7.04c2.005,2.091,4.075,2.517,6.976,2.539
				l-1.387,17.344c-5.568,0-10.197,4.267-10.645,9.835c-0.917,11.499-6.805,23.445-15.381,31.125
				c-2.944,2.624-4.181,6.677-3.221,10.517l4.373,17.429c0.96,3.819,3.947,6.805,7.765,7.765l38.229,9.536
				c12.843,3.221,22.656,12.928,26.325,25.088l-188.885-0.021C154.581,243.819,164.395,234.133,177.195,230.912z"/>
			<path d="M146.197,344.469c-4.16-4.16-10.923-4.16-15.083,0l-13.781,13.781l-13.781-13.781c-4.16-4.16-10.923-4.16-15.083,0
				c-4.16,4.16-4.16,10.923,0,15.083l13.76,13.781l-13.781,13.781c-4.16,4.16-4.16,10.923,0,15.083
				c2.091,2.091,4.821,3.136,7.552,3.136s5.461-1.045,7.531-3.115l13.803-13.781l13.781,13.781c2.091,2.069,4.821,3.115,7.552,3.115
				c2.731,0,5.461-1.045,7.531-3.115c4.16-4.16,4.16-10.923,0-15.083l-13.781-13.803l13.781-13.781
				C150.357,355.392,150.357,348.629,146.197,344.469z"/>
			<path d="M437.333,0h-384C23.936,0,0,23.915,0,53.333v384c0,29.419,23.936,53.333,53.333,53.333h384
				c29.397,0,53.333-23.915,53.333-53.333v-384C490.667,23.915,466.731,0,437.333,0z M469.333,437.333c0,17.643-14.357,32-32,32
				h-384c-17.643,0-32-14.357-32-32v-384c0-17.643,14.357-32,32-32h384c17.643,0,32,14.357,32,32V437.333z"/>
			<path d="M394.667,298.667H96c-29.397,0-53.333,23.915-53.333,53.333v42.667C42.667,424.085,66.603,448,96,448h298.667
				C424.064,448,448,424.085,448,394.667V352C448,322.581,424.064,298.667,394.667,298.667z M426.667,394.667
				c0,17.643-14.357,32-32,32H96c-17.643,0-32-14.357-32-32V352c0-17.643,14.357-32,32-32h298.667c17.643,0,32,14.357,32,32V394.667
				z"/>
			<path d="M316.864,344.469c-4.16-4.16-10.923-4.16-15.083,0L288,358.251l-13.781-13.781c-4.16-4.16-10.923-4.16-15.083,0
				c-4.16,4.16-4.16,10.923,0,15.083l13.76,13.781l-13.781,13.781c-4.16,4.16-4.16,10.923,0,15.083
				c2.091,2.091,4.821,3.136,7.552,3.136c2.731,0,5.461-1.045,7.531-3.115L288,388.437l13.781,13.781
				c2.091,2.069,4.821,3.115,7.552,3.115s5.461-1.045,7.531-3.115c4.16-4.16,4.16-10.923,0-15.083l-13.781-13.803l13.781-13.781
				C321.024,355.392,321.024,348.629,316.864,344.469z"/>
			<path d="M402.197,344.469c-4.16-4.16-10.923-4.16-15.083,0l-13.781,13.781l-13.781-13.781c-4.16-4.16-10.923-4.16-15.083,0
				c-4.16,4.16-4.16,10.923,0,15.083l13.76,13.781l-13.781,13.781c-4.16,4.16-4.16,10.923,0,15.083
				c2.091,2.091,4.821,3.136,7.552,3.136s5.461-1.045,7.531-3.115l13.803-13.781l13.781,13.781c2.091,2.069,4.821,3.115,7.552,3.115
				c2.731,0,5.461-1.045,7.531-3.115c4.16-4.16,4.16-10.923,0-15.083l-13.781-13.803l13.781-13.781
				C406.357,355.392,406.357,348.629,402.197,344.469z"/>
		</g>
	</g>
</g>
<g>
</g>
<g>
</g>
<g>
</g>
<g>
</g>
<g>
</g>
<g>
</g>
<g>
</g>
<g>
</g>
<g>
</g>
<g>
</g>
<g>
</g>
<g>
</g>
<g>
</g>
<g>
</g>
<g>
</g>
</svg>
