<?xml version="1.0" encoding="iso-8859-1"?>
<!-- Generator: Adobe Illustrator 19.0.0, SVG Export Plug-In . SVG Version: 6.00 Build 0)  -->
<svg version="1.1" id="Layer_1" xmlns="http://www.w3.org/2000/svg" xmlns:xlink="http://www.w3.org/1999/xlink" x="0px" y="0px"
	 viewBox="0 0 512 512" style="enable-background:new 0 0 512 512;" xml:space="preserve">
<path style="fill:#D5DCED;" d="M379.852,503.706H132.146c-14.658,0-26.54-11.882-26.54-26.54V34.834
	c0-14.658,11.882-26.54,26.54-26.54h247.706c14.658,0,26.54,11.882,26.54,26.54v442.333
	C406.392,491.824,394.51,503.706,379.852,503.706z"/>
<path style="fill:#C7CFE2;" d="M406.392,237.481V132.147h-17.693H105.606v105.334c6.336-1.072,12.326-3.187,17.693-6.298
	c7.812,4.528,16.879,7.124,26.54,7.124c9.661,0,18.728-2.595,26.54-7.124c7.812,4.528,16.879,7.124,26.54,7.124
	s18.728-2.595,26.54-7.124c7.812,4.528,16.879,7.124,26.54,7.124s18.728-2.595,26.54-7.124c7.812,4.528,16.879,7.124,26.54,7.124
	s18.728-2.595,26.54-7.124c7.812,4.528,16.879,7.124,26.54,7.124c9.661,0,18.728-2.595,26.54-7.124
	C394.066,234.295,400.056,236.41,406.392,237.481z"/>
<path style="fill:#FFDC64;" d="M371.005,140.994H140.992v283.093c0,4.886,3.961,8.847,8.847,8.847h212.32
	c4.886,0,8.847-3.961,8.847-8.847V140.994z"/>
<path style="fill:#FFC850;" d="M140.992,237.481c2.886,0.488,5.823,0.826,8.847,0.826c9.661,0,18.728-2.595,26.54-7.124
	c7.812,4.528,16.879,7.124,26.54,7.124s18.728-2.595,26.54-7.124c7.812,4.528,16.879,7.124,26.54,7.124s18.728-2.595,26.54-7.124
	c7.812,4.528,16.879,7.124,26.54,7.124s18.728-2.595,26.54-7.124c7.812,4.528,16.879,7.124,26.54,7.124
	c3.023,0,5.96-0.337,8.847-0.826v-96.487H140.992V237.481z"/>
<polygon style="fill:#FAEBC8;" points="371.005,79.067 140.992,79.067 70.219,158.687 441.779,158.687 "/>
<g>
	<polygon style="fill:#FF6991;" points="272.428,79.067 239.57,79.067 229.459,158.687 282.539,158.687 	"/>
	<polygon style="fill:#FF6991;" points="338.147,79.067 305.287,79.067 335.619,158.687 388.699,158.687 	"/>
</g>
<path style="fill:#F5DCB4;" d="M388.699,158.687H70.219v26.54c0,14.658,11.882,26.54,26.54,26.54s26.54-11.882,26.54-26.54
	c0,14.658,11.882,26.54,26.54,26.54c14.658,0,26.54-11.882,26.54-26.54c0,14.658,11.882,26.54,26.54,26.54
	c14.658,0,26.54-11.882,26.54-26.54c0,14.658,11.882,26.54,26.54,26.54c14.658,0,26.54-11.882,26.54-26.54
	c0,14.658,11.882,26.54,26.54,26.54s26.54-11.882,26.54-26.54c0,14.658,11.882,26.54,26.54,26.54c14.658,0,26.54-11.882,26.54-26.54
	c0,14.658,11.882,26.54,26.54,26.54s26.54-11.882,26.54-26.54v-26.54H388.699z"/>
<g>
	<path style="fill:#FF507D;" d="M149.839,211.767L149.839,211.767c-14.658,0-26.54-11.882-26.54-26.54v-26.54h53.08v26.54
		C176.379,199.885,164.497,211.767,149.839,211.767z"/>
	<path style="fill:#FF507D;" d="M362.159,211.767L362.159,211.767c-14.658,0-26.54-11.882-26.54-26.54v-26.54h53.08v26.54
		C388.699,199.885,376.816,211.767,362.159,211.767z"/>
	<path style="fill:#FF507D;" d="M255.999,211.767L255.999,211.767c-14.658,0-26.54-11.882-26.54-26.54v-26.54h53.08v26.54
		C282.539,199.885,270.657,211.767,255.999,211.767z"/>
</g>
<polygon style="fill:#FF6991;" points="173.851,79.067 123.299,158.687 176.379,158.687 206.711,79.067 "/>
<path style="fill:#D5DCED;" d="M208.227,273.693l17.449,58.165c2.245,7.484,9.134,12.609,16.947,12.609h57.609
	c9.771,0,17.693-7.922,17.693-17.693v-53.08H208.227z"/>
<path style="fill:#E4EAF8;" d="M291.385,273.693v53.08c0,9.771-7.922,17.693-17.693,17.693h26.54
	c9.771,0,17.693-7.922,17.693-17.693v-53.08H291.385z"/>
<path d="M238.306,51.974h35.387c4.58,0,8.294-3.713,8.294-8.294s-3.713-8.294-8.294-8.294h-35.387c-4.58,0-8.294,3.713-8.294,8.294
	S233.725,51.974,238.306,51.974z"/>
<path d="M203.007,51.974c4.58,0,8.294-3.713,8.294-8.294s-3.713-8.294-8.294-8.294h-0.088c-4.58,0-8.25,3.713-8.25,8.294
	S198.427,51.974,203.007,51.974z"/>
<path d="M371.005,238.86c-4.58,0-8.294,3.713-8.294,8.294v177.486H149.286V247.153c0-4.58-3.713-8.294-8.294-8.294
	s-8.294,3.713-8.294,8.294v185.78c0,4.58,3.713,8.294,8.294,8.294h230.013c4.58,0,8.294-3.713,8.294-8.294v-185.78
	C379.299,242.573,375.586,238.86,371.005,238.86z"/>
<path d="M273.692,460.026h-35.387c-4.58,0-8.294,3.713-8.294,8.294s3.713,8.294,8.294,8.294h35.387c4.58,0,8.294-3.713,8.294-8.294
	S278.273,460.026,273.692,460.026z"/>
<path d="M176.379,264.294h19.958c0.242,0,0.46,0.161,0.53,0.394l20.866,69.552c3.322,11.078,13.325,18.52,24.89,18.52h57.609
	c14.329,0,25.987-11.658,25.987-25.987v-53.08c0-4.58-3.713-8.294-8.294-8.294H214.398l-1.643-5.478
	c-2.192-7.306-8.789-12.215-16.417-12.215h-19.958c-4.58,0-8.294,3.713-8.294,8.294S171.799,264.294,176.379,264.294z
	 M309.632,281.987v44.786c0,5.183-4.217,9.4-9.4,9.4h-57.609c-4.183,0-7.802-2.693-9.004-6.699l-14.245-47.487H309.632z"/>
<path d="M203.472,379.853c0,9.452,7.689,17.14,17.14,17.14s17.14-7.689,17.14-17.14s-7.689-17.14-17.14-17.14
	S203.472,370.402,203.472,379.853z"/>
<path d="M291.938,379.853c0,9.452,7.689,17.14,17.14,17.14s17.14-7.689,17.14-17.14s-7.689-17.14-17.14-17.14
	S291.938,370.402,291.938,379.853z"/>
<path d="M447.971,153.183l0.007-0.006l-33.292-37.453v-80.89C414.686,15.627,399.059,0,379.852,0H132.146
	c-19.207,0-34.834,15.627-34.834,34.834v80.89l-33.291,37.453l0.007,0.006c-1.303,1.465-2.101,3.388-2.101,5.504v26.54
	c0,19.207,15.627,34.834,34.834,34.834c0.186,0,0.368-0.012,0.553-0.015v257.121c0,19.207,15.626,34.834,34.834,34.834h247.706
	c19.207,0,34.834-15.627,34.834-34.834V220.045c0.185,0.003,0.367,0.015,0.553,0.015c19.207,0,34.834-15.626,34.834-34.834v-26.54
	C450.072,156.571,449.274,154.648,447.971,153.183z M144.717,87.361h14.044l-40.02,63.032H88.688L144.717,87.361z M333.588,87.361
	l40.02,63.032h-32.274l-24.012-63.032H333.588z M299.572,87.361l24.012,63.032h-33.738l-8.004-63.032H299.572z M265.121,87.361
	l8.004,63.032h-34.252l8.004-63.032H265.121z M222.152,150.393h-33.738l24.012-63.032h17.73L222.152,150.393z M170.663,150.393
	h-32.274l40.02-63.032h16.266L170.663,150.393z M131.593,166.981h36.492v18.246c0,10.061-8.185,18.246-18.246,18.246
	c-10.061,0-18.246-8.185-18.246-18.246V166.981z M184.673,166.981h36.492v18.246c0,10.061-8.185,18.246-18.246,18.246
	c-10.061,0-18.246-8.185-18.246-18.246V166.981z M237.753,166.981h36.492v18.246c0,10.061-8.185,18.246-18.246,18.246
	s-18.246-8.185-18.246-18.246V166.981z M290.833,166.981h36.492v18.246c0,10.061-8.185,18.246-18.246,18.246
	s-18.246-8.185-18.246-18.246V166.981z M343.912,166.981h36.492v18.246c0,10.061-8.185,18.246-18.246,18.246
	c-10.061,0-18.246-8.185-18.246-18.246V166.981z M393.257,150.393l-40.02-63.032h14.044l56.029,63.032H393.257z M113.9,34.834
	c0-10.061,8.185-18.246,18.246-18.246h247.706c10.061,0,18.246,8.185,18.246,18.246v62.23l-20.895-23.506
	c-1.574-1.772-3.829-2.784-6.198-2.784H140.992c-2.369,0-4.625,1.013-6.198,2.784L113.9,97.063V34.834z M78.513,185.227v-18.246
	h36.492v18.246c0,10.061-8.185,18.246-18.246,18.246S78.513,195.288,78.513,185.227z M398.098,477.166
	c0,10.061-8.185,18.246-18.246,18.246H132.146c-10.061,0-18.246-8.185-18.246-18.246V215.531c3.571-2.027,6.756-4.658,9.4-7.766
	c6.394,7.519,15.92,12.296,26.54,12.296c10.62,0,20.146-4.777,26.54-12.296c6.394,7.519,15.92,12.296,26.54,12.296
	s20.146-4.777,26.54-12.296c6.394,7.519,15.92,12.296,26.54,12.296s20.146-4.777,26.54-12.296
	c6.394,7.519,15.92,12.296,26.54,12.296s20.146-4.777,26.54-12.296c6.394,7.519,15.92,12.296,26.54,12.296
	c10.62,0,20.146-4.777,26.54-12.296c2.644,3.109,5.829,5.738,9.4,7.766V477.166z M433.485,185.227
	c0,10.061-8.185,18.246-18.246,18.246s-18.246-8.185-18.246-18.246v-18.246h36.492V185.227z"/>
<g>
</g>
<g>
</g>
<g>
</g>
<g>
</g>
<g>
</g>
<g>
</g>
<g>
</g>
<g>
</g>
<g>
</g>
<g>
</g>
<g>
</g>
<g>
</g>
<g>
</g>
<g>
</g>
<g>
</g>
</svg>
